<?xml version="1.0" encoding="UTF-8" standalone="no"?>
<svg
   xmlns:dc="http://purl.org/dc/elements/1.1/"
   xmlns:cc="http://creativecommons.org/ns#"
   xmlns:rdf="http://www.w3.org/1999/02/22-rdf-syntax-ns#"
   xmlns:svg="http://www.w3.org/2000/svg"
   xmlns="http://www.w3.org/2000/svg"
   version="1.1"
   id="svg2"
   viewBox="0 0 394.85635 387.00029"
   height="483.75037"
   width="493.57043">
  <metadata
     id="metadata244">
    <rdf:RDF>
      <cc:Work
         rdf:about="">
        <dc:format>image/svg+xml</dc:format>
        <dc:type
           rdf:resource="http://purl.org/dc/dcmitype/StillImage" />
        <dc:title></dc:title>
      </cc:Work>
    </rdf:RDF>
  </metadata>
  <defs
     id="defs242" />
  <polygon
     transform="matrix(0.90356151,0,0,0.88558422,197.42818,193.50015)"
     style="fill:#ffffff;stroke:none"
     points="-218.5,218.5 -218.5,-218.5 218.5,-218.5 218.5,218.5 -218.5,218.5 "
     id="polygon7" />
  <g
     style="stroke-width:2.78546858;stroke-miterlimit:4;stroke-dasharray:none;stroke:#000000;stroke-opacity:1"
     transform="matrix(0.8616145,0,0,0.8616145,198.73752,190.22679)"
     id="node1"
     class="node">
    <title
       id="title10">0</title>
    <circle
       style="fill:none;stroke:#000000;stroke-width:2.78546858;stroke-miterlimit:4;stroke-dasharray:none;stroke-opacity:1"
       r="14.5"
       cx="-200"
       cy="-2.4869001e-14"
       id="ellipse12" />
    <text
       style="font-size:14px;font-family:Times, serif;text-anchor:middle;stroke-width:2.78546858;stroke-miterlimit:4;stroke-dasharray:none;stroke:none;stroke-opacity:1;"
       x="-200"
       y="3.7"
       font-size="14.00"
       id="text14">m0</text>
  </g>
  <g
     transform="matrix(0.8616145,0,0,0.8616145,198.73752,190.22679)"
     id="node4"
     class="node">
    <title
       id="title17">1</title>
    <circle
       style="fill:none;stroke:#000000"
       r="14.5"
       cx="-173.205"
       cy="100"
       id="ellipse19" />
    <text
       style="font-size:14px;font-family:Times, serif;text-anchor:middle"
       x="-173.205"
       y="103.7"
       font-size="14.00"
       id="text21">m1</text>
  </g>
  <g
     transform="matrix(0.8616145,0,0,0.8616145,198.73752,190.22679)"
     id="edge1"
     class="edge">
    <title
       id="title24">0-&gt;1</title>
    <path
       style="fill:none;stroke:#000000"
       d="m -196.161,14.3276 c 4.298,16.0396 11.334,42.2988 16.485,61.524"
       id="path26" />
    <polygon
       style="fill:#000000;stroke:#000000"
       points="-177.037,85.699 -183.006,76.9456 -176.245,75.1339 -176.245,75.1339 "
       id="polygon28" />
  </g>
  <g
     transform="matrix(0.8616145,0,0,0.8616145,198.73752,190.22679)"
     id="node5"
     class="node">
    <title
       id="title31">2</title>
    <circle
       style="fill:none;stroke:#000000"
       r="14.5"
       cx="-100"
       cy="173.205"
       id="ellipse33" />
    <text
       style="font-size:14px;font-family:Times, serif;text-anchor:middle"
       x="-100"
       y="176.905"
       font-size="14.00"
       id="text35">m2</text>
  </g>
  <g
     transform="matrix(0.8616145,0,0,0.8616145,198.73752,190.22679)"
     id="edge13"
     class="edge">
    <title
       id="title38">0-&gt;2</title>
    <path
       style="fill:none;stroke:#000000"
       d="m -192.647,12.7362 c 16.976,29.4034 59.057,102.2898 80.161,138.8418"
       id="path40" />
    <polygon
       style="fill:#000000;stroke:#000000"
       points="-107.364,160.45 -115.395,153.54 -109.333,150.04 -109.333,150.04 "
       id="polygon42" />
  </g>
  <g
     style="stroke-width:2.78546858;stroke-miterlimit:4;stroke-dasharray:none;stroke:#000000;stroke-opacity:1"
     transform="matrix(0.8616145,0,0,0.8616145,198.73752,190.22679)"
     id="node2"
     class="node">
    <title
       id="title45">4</title>
    <circle
       style="fill:none;stroke:#000000;stroke-width:2.78546858;stroke-miterlimit:4;stroke-dasharray:none;stroke-opacity:1"
       r="14.5"
       cx="100"
       cy="173.205"
       id="ellipse47" />
    <text
       style="font-size:14px;font-family:Times, serif;text-anchor:middle;stroke-width:2.78546858;stroke-miterlimit:4;stroke-dasharray:none;stroke:none;stroke-opacity:1;"
       x="100"
       y="176.905"
       font-size="14.00"
       id="text49">m4</text>
  </g>
  <g
     transform="matrix(0.8616145,0,0,0.8616145,198.73752,190.22679)"
     id="node7"
     class="node">
    <title
       id="title52">5</title>
    <circle
       style="fill:none;stroke:#000000"
       r="14.5"
       cx="173.205"
       cy="100"
       id="ellipse54" />
    <text
       style="font-size:14px;font-family:Times, serif;text-anchor:middle"
       x="173.205"
       y="103.7"
       font-size="14.00"
       id="text56">m5</text>
  </g>
  <g
     transform="matrix(0.8616145,0,0,0.8616145,198.73752,190.22679)"
     id="edge5"
     class="edge">
    <title
       id="title59">4-&gt;5</title>
    <path
       style="fill:none;stroke:#000000"
       d="m 110.489,162.717 c 11.741,-11.742 30.964,-30.965 45.038,-45.039"
       id="path61" />
    <polygon
       style="fill:#000000;stroke:#000000"
       points="162.736,110.469 158.14,120.015 153.19,115.065 153.19,115.065 "
       id="polygon63" />
  </g>
  <g
     transform="matrix(0.8616145,0,0,0.8616145,198.73752,190.22679)"
     id="node8"
     class="node">
    <title
       id="title66">6</title>
    <circle
       style="fill:none;stroke:#000000"
       r="14.5"
       cx="200"
       cy="4.9738002e-14"
       id="ellipse68" />
    <text
       style="font-size:14px;font-family:Times, serif;text-anchor:middle"
       x="200"
       y="3.7"
       font-size="14.00"
       id="text70">m6</text>
  </g>
  <g
     transform="matrix(0.8616145,0,0,0.8616145,198.73752,190.22679)"
     id="edge14"
     class="edge">
    <title
       id="title73">4-&gt;6</title>
    <path
       style="fill:none;stroke:#000000"
       d="M 107.353,160.469 C 124.329,131.066 166.41,58.1795 187.514,21.6267"
       id="path75" />
    <polygon
       style="fill:#000000;stroke:#000000"
       points="192.636,12.7549 190.667,23.1651 184.605,19.6651 184.605,19.6651 "
       id="polygon77" />
  </g>
  <g
     style="stroke-width:2.78546858;stroke-miterlimit:4;stroke-dasharray:none;stroke:#000000;stroke-opacity:1"
     transform="matrix(0.8616145,0,0,0.8616145,198.73752,190.22679)"
     id="node3"
     class="node">
    <title
       id="title80">8</title>
    <circle
       style="fill:none;stroke:#000000;stroke-width:2.78546858;stroke-miterlimit:4;stroke-dasharray:none;stroke-opacity:1"
       r="14.5"
       cx="100"
       cy="-173.205"
       id="ellipse82" />
    <text
       style="font-size:14px;font-family:Times, serif;text-anchor:middle;stroke-width:2.78546858;stroke-miterlimit:4;stroke-dasharray:none;stroke:none;stroke-opacity:1;"
       x="100"
       y="-169.505"
       font-size="14.00"
       id="text84">m8</text>
  </g>
  <circle
     id="ellipse89"
     cy="17.903893"
     cx="198.73752"
     r="12.49341"
     style="fill:none;stroke:#000000;stroke-width:1.59999998;stroke-miterlimit:4;stroke-dasharray:1.59999998,1.59999998;stroke-opacity:1;stroke-dashoffset:0" />
  <text
     id="text91"
     font-size="14.00"
     y="21.091864"
     x="198.73752"
     style="font-size:12.062603px;font-family:Times, serif;text-anchor:middle;stroke-width:1.60000002;stroke-miterlimit:4;stroke-dasharray:none">m9</text>
  <g
     transform="matrix(0.8616145,0,0,0.8616145,198.73752,190.22679)"
     id="edge9"
     class="edge">
    <title
       id="title94">8-&gt;9</title>
    <path
       style="fill:none;stroke:#000000"
       d="m 85.6724,-177.044 c -16.0396,-4.298 -42.2988,-11.334 -61.524,-16.485"
       id="path96" />
    <polygon
       style="fill:#000000;stroke:#000000"
       points="14.301,-196.168 24.8661,-196.961 23.0544,-190.199 23.0544,-190.199 "
       id="polygon98" />
  </g>
  <g
     transform="matrix(0.8616145,0,0,0.8616145,198.73752,190.22679)"
     id="node11"
     class="node">
    <title
       id="title101">10</title>
    <circle
       style="fill:none;stroke:#000000"
       r="14.5"
       cx="-100"
       cy="-173.205"
       id="ellipse103" />
    <text
       style="font-size:14px;font-family:Times, serif;text-anchor:middle"
       x="-100"
       y="-169.505"
       font-size="14.00"
       id="text105">m10</text>
  </g>
  <g
     transform="matrix(0.8616145,0,0,0.8616145,198.73752,190.22679)"
     id="edge15"
     class="edge">
    <title
       id="title108">8-&gt;10</title>
    <path
       style="fill:none;stroke:#000000"
       d="m 85.2935,-173.205 c -33.9521,0 -118.1136,0 -160.3211,0"
       id="path110" />
    <polygon
       style="fill:#000000;stroke:#000000"
       points="-85.272,-173.205 -75.272,-176.705 -75.2719,-169.705 -75.2719,-169.705 "
       id="polygon112" />
  </g>
  <g
     transform="matrix(0.8616145,0,0,0.8616145,198.73752,190.22679)"
     id="edge2"
     class="edge">
    <title
       id="title115">1-&gt;2</title>
    <path
       style="fill:none;stroke:#000000"
       d="m -162.717,110.489 c 11.742,11.741 30.965,30.964 45.039,45.038"
       id="path117" />
    <polygon
       style="fill:#000000;stroke:#000000"
       points="-110.469,162.736 -120.015,158.14 -115.065,153.19 -115.065,153.19 "
       id="polygon119" />
  </g>
  <circle
     id="ellipse124"
     cy="104.06534"
     cx="347.97348"
     r="12.49341"
     style="fill:none;stroke:#000000;stroke-width:1.60000008;stroke-miterlimit:4;stroke-dasharray:1.60000008,1.60000008;stroke-opacity:1;stroke-dashoffset:0" />
  <text
     id="text126"
     font-size="14.00"
     y="107.25331"
     x="347.97348"
     style="font-size:12.062603px;font-family:Times, serif;text-anchor:middle;stroke-width:1.60000002;stroke-miterlimit:4;stroke-dasharray:none">m7</text>
  <g
     transform="matrix(0.8616145,0,0,0.8616145,198.73752,190.22679)"
     id="edge16"
     class="edge">
    <title
       id="title129">1-&gt;7</title>
    <path
       style="fill:none;stroke:#000000"
       d="M -161.842,90.2607 C -112.598,55.9671 82.3232,-56.8483 149.975,-90.5999"
       id="path131" />
    <polygon
       style="fill:#000000;stroke:#000000"
       points="159.351,-95.1514 151.883,-87.6356 148.826,-93.9327 148.826,-93.9327 "
       id="polygon133" />
  </g>
  <g
     transform="matrix(0.8616145,0,0,0.8616145,198.73752,190.22679)"
     id="node6"
     class="node">
    <title
       id="title136">3</title>
    <circle
       style="fill:none;stroke:#000000"
       r="14.5"
       cx="-3.73035e-14"
       cy="200"
       id="ellipse138" />
    <text
       style="font-size:14px;font-family:Times, serif;text-anchor:middle"
       x="-3.67394e-14"
       y="203.7"
       font-size="14.00"
       id="text140">m3</text>
  </g>
  <g
     transform="matrix(0.8616145,0,0,0.8616145,198.73752,190.22679)"
     id="edge3"
     class="edge">
    <title
       id="title143">2-&gt;3</title>
    <path
       style="fill:none;stroke:#000000"
       d="m -85.6724,177.044 c 16.0396,4.298 42.2988,11.334 61.524,16.485"
       id="path145" />
    <polygon
       style="fill:#000000;stroke:#000000"
       points="-14.301,196.168 -24.8661,196.961 -23.0544,190.199 -23.0544,190.199 "
       id="polygon147" />
  </g>
  <g
     transform="matrix(0.8616145,0,0,0.8616145,198.73752,190.22679)"
     id="edge4"
     class="edge">
    <title
       id="title150">3-&gt;4</title>
    <path
       style="fill:none;stroke:#000000"
       d="m 14.3276,196.161 c 16.0396,-4.298 42.2988,-11.334 61.524,-16.485"
       id="path152" />
    <polygon
       style="fill:#000000;stroke:#000000"
       points="85.699,177.037 76.9456,183.006 75.1339,176.245 75.1339,176.245 "
       id="polygon154" />
  </g>
  <g
     transform="matrix(0.8616145,0,0,0.8616145,198.73752,190.22679)"
     id="edge17"
     class="edge">
    <title
       id="title157">3-&gt;9</title>
    <path
       style="fill:none;stroke:#000000"
       d="M -2.7528,185.289 C -7.82996,125.496 -8.07044,-99.7181 -3.47426,-175.182"
       id="path159" />
    <polygon
       style="fill:#000000;stroke:#000000"
       points="-2.72819,-185.577 0.0468831,-175.353 -6.93516,-175.854 -6.93516,-175.854 "
       id="polygon161" />
  </g>
  <g
     transform="matrix(0.8616145,0,0,0.8616145,198.73752,190.22679)"
     id="edge6"
     class="edge">
    <title
       id="title164">5-&gt;6</title>
    <path
       style="fill:none;stroke:#000000"
       d="m 177.044,85.6724 c 4.298,-16.0396 11.334,-42.2988 16.485,-61.524"
       id="path166" />
    <polygon
       style="fill:#000000;stroke:#000000"
       points="196.168,14.301 196.961,24.8661 190.199,23.0544 190.199,23.0544 "
       id="polygon168" />
  </g>
  <circle
     id="ellipse173"
     cy="104.06534"
     cx="49.501579"
     r="12.49341"
     style="fill:none;stroke:#000000;stroke-width:1.59999998;stroke-miterlimit:4;stroke-dasharray:1.59999998,1.59999998;stroke-opacity:1;stroke-dashoffset:0" />
  <text
     id="text175"
     font-size="14.00"
     y="107.25331"
     x="49.501579"
     style="font-size:12.062603px;font-family:Times, serif;text-anchor:middle;stroke-width:1.60000002;stroke-miterlimit:4;stroke-dasharray:none">m11</text>
  <g
     transform="matrix(0.8616145,0,0,0.8616145,198.73752,190.22679)"
     id="edge18"
     class="edge">
    <title
       id="title178">5-&gt;11</title>
    <path
       style="fill:none;stroke:#000000"
       d="M 159.089,95.0287 C 104.768,69.529 -90.3937,-42.8699 -153.449,-84.5823"
       id="path180" />
    <polygon
       style="fill:#000000;stroke:#000000"
       points="-162.079,-90.4261 -151.836,-87.7169 -155.761,-81.9208 -155.761,-81.9208 "
       id="polygon182" />
  </g>
  <g
     transform="matrix(0.8616145,0,0,0.8616145,198.73752,190.22679)"
     id="edge7"
     class="edge">
    <title
       id="title185">6-&gt;7</title>
    <path
       style="fill:none;stroke:#000000"
       d="m 196.161,-14.3276 c -4.298,-16.0396 -11.334,-42.2988 -16.485,-61.524"
       id="path187" />
    <polygon
       style="fill:#000000;stroke:#000000"
       points="177.037,-85.699 183.006,-76.9456 176.245,-75.1339 176.245,-75.1339 "
       id="polygon189" />
  </g>
  <g
     transform="matrix(0.8616145,0,0,0.8616145,198.73752,190.22679)"
     id="edge8"
     class="edge">
    <title
       id="title192">7-&gt;8</title>
    <path
       style="fill:none;stroke:#000000"
       d="m 162.717,-110.489 c -11.742,-11.741 -30.965,-30.964 -45.039,-45.038"
       id="path194" />
    <polygon
       style="fill:#000000;stroke:#000000"
       points="110.469,-162.736 120.015,-158.14 115.065,-153.19 115.065,-153.19 "
       id="polygon196" />
  </g>
  <g
     transform="matrix(0.8616145,0,0,0.8616145,198.73752,190.22679)"
     id="edge19"
     class="edge">
    <title
       id="title199">7-&gt;1</title>
    <path
       style="fill:none;stroke:#000000"
       d="M 161.842,-90.2607 C 112.598,-55.9671 -82.3232,56.8483 -149.975,90.5999"
       id="path201" />
    <polygon
       style="fill:#000000;stroke:#000000"
       points="-159.351,95.1514 -151.883,87.6356 -148.826,93.9327 -148.826,93.9327 "
       id="polygon203" />
  </g>
  <g
     transform="matrix(0.8616145,0,0,0.8616145,198.73752,190.22679)"
     id="edge20"
     class="edge">
    <title
       id="title206">9-&gt;3</title>
    <path
       style="fill:none;stroke:#000000"
       d="m 2.7528,-185.289 c 5.07716,59.793 5.31764,285.0071 0.72146,360.471"
       id="path208" />
    <polygon
       style="fill:#000000;stroke:#000000"
       points="2.72819,185.577 -0.0468831,175.353 6.93516,175.854 6.93516,175.854 "
       id="polygon210" />
  </g>
  <g
     transform="matrix(0.8616145,0,0,0.8616145,198.73752,190.22679)"
     id="edge10"
     class="edge">
    <title
       id="title213">9-&gt;10</title>
    <path
       style="fill:none;stroke:#000000"
       d="m -14.3276,-196.161 c -16.0396,4.298 -42.2988,11.334 -61.524,16.485"
       id="path215" />
    <polygon
       style="fill:#000000;stroke:#000000"
       points="-85.699,-177.037 -76.9456,-183.006 -75.1339,-176.245 -75.1339,-176.245 "
       id="polygon217" />
  </g>
  <g
     transform="matrix(0.8616145,0,0,0.8616145,198.73752,190.22679)"
     id="edge11"
     class="edge">
    <title
       id="title220">10-&gt;11</title>
    <path
       style="fill:none;stroke:#000000"
       d="m -110.489,-162.717 c -11.741,11.742 -30.964,30.965 -45.038,45.039"
       id="path222" />
    <polygon
       style="fill:#000000;stroke:#000000"
       points="-162.736,-110.469 -158.14,-120.015 -153.19,-115.065 -153.19,-115.065 "
       id="polygon224" />
  </g>
  <g
     transform="matrix(0.8616145,0,0,0.8616145,198.73752,190.22679)"
     id="edge12"
     class="edge">
    <title
       id="title227">11-&gt;0</title>
    <path
       style="fill:none;stroke:#000000"
       d="m -177.044,-85.6724 c -4.298,16.0396 -11.334,42.2988 -16.485,61.524"
       id="path229" />
    <polygon
       style="fill:#000000;stroke:#000000"
       points="-196.168,-14.301 -196.961,-24.8661 -190.199,-23.0544 -190.199,-23.0544 "
       id="polygon231" />
  </g>
  <g
     transform="matrix(0.8616145,0,0,0.8616145,198.73752,190.22679)"
     id="edge21"
     class="edge">
    <title
       id="title234">11-&gt;5</title>
    <path
       style="fill:none;stroke:#000000"
       d="M -159.089,-95.0287 C -104.768,-69.529 90.3937,42.8699 153.449,84.5823"
       id="path236" />
    <polygon
       style="fill:#000000;stroke:#000000"
       points="162.079,90.4261 151.836,87.7169 155.761,81.9208 155.761,81.9208 "
       id="polygon238" />
  </g>
</svg>
